<svg xmlns="http://www.w3.org/2000/svg" width="1200" height="360" viewBox="0 0 1200 360" role="img" aria-labelledby="title desc">
  <title id="title">Multi-Converter</title>
  <desc id="desc">Banniere Multi-Converter, conversion locale, privee et open source</desc>
  <defs>
    <linearGradient id="bg" x1="0" y1="0" x2="1" y2="1">
      <stop offset="0" stop-color="#fffaf0"/>
      <stop offset="0.48" stop-color="#f6f4ef"/>
      <stop offset="1" stop-color="#e8f1ef"/>
    </linearGradient>
    <filter id="shadow" x="-20%" y="-20%" width="140%" height="140%">
      <feDropShadow dx="0" dy="18" stdDeviation="18" flood-color="#1d1a16" flood-opacity="0.18"/>
    </filter>
  </defs>
  <rect width="1200" height="360" rx="34" fill="url(#bg)"/>
  <circle cx="1040" cy="74" r="130" fill="#c86a34" opacity="0.12"/>
  <circle cx="112" cy="292" r="104" fill="#2f7f73" opacity="0.10"/>
  <g transform="translate(108 78)" filter="url(#shadow)">
    <rect x="0" y="0" width="204" height="204" rx="44" fill="#fffdf8" stroke="#23201c" stroke-width="9"/>
    <rect x="51" y="94" width="102" height="16" rx="8" fill="#23201c"/>
    <rect x="94" y="51" width="16" height="102" rx="8" fill="#23201c"/>
    <circle cx="151" cy="153" r="22" fill="#c86a34"/>
  </g>
  <g transform="translate(370 92)">
    <text x="0" y="62" font-family="Segoe UI, Inter, Arial, sans-serif" font-size="62" font-weight="800" fill="#23201c">Multi-Converter</text>
    <text x="0" y="112" font-family="Segoe UI, Inter, Arial, sans-serif" font-size="26" font-weight="600" fill="#5a5248">Conversion locale, privee et open source</text>
    <g transform="translate(0 154)">
      <rect x="0" y="0" width="176" height="40" rx="20" fill="#23201c"/>
      <text x="88" y="27" text-anchor="middle" font-family="Segoe UI, Inter, Arial, sans-serif" font-size="16" font-weight="700" fill="#fffdf8">Documents</text>
      <rect x="192" y="0" width="132" height="40" rx="20" fill="#c86a34"/>
      <text x="258" y="27" text-anchor="middle" font-family="Segoe UI, Inter, Arial, sans-serif" font-size="16" font-weight="700" fill="#fffdf8">Images</text>
      <rect x="340" y="0" width="116" height="40" rx="20" fill="#2f7f73"/>
      <text x="398" y="27" text-anchor="middle" font-family="Segoe UI, Inter, Arial, sans-serif" font-size="16" font-weight="700" fill="#fffdf8">Audio</text>
      <rect x="472" y="0" width="118" height="40" rx="20" fill="#475569"/>
      <text x="531" y="27" text-anchor="middle" font-family="Segoe UI, Inter, Arial, sans-serif" font-size="16" font-weight="700" fill="#fffdf8">Video</text>
    </g>
  </g>
</svg>
